<svg xmlns="http://www.w3.org/2000/svg" viewBox="0 0 1020 300" width="1020" height="300">
  <!--
    ADVANCED PEPTIDES UK — RETATRUTIDE BOX BACK COVER
    Supplier Print Artwork  |  Same format as front cover
  -->
  <defs>
    <linearGradient id="paperBg" x1="0%" y1="0%" x2="0%" y2="100%">
      <stop offset="0%"  stop-color="#ffffff"/>
      <stop offset="100%" stop-color="#f4f8fc"/>
    </linearGradient>
    <linearGradient id="navyBanner" x1="0%" y1="0%" x2="100%" y2="0%">
      <stop offset="0%"  stop-color="#0d1f3c"/>
      <stop offset="100%" stop-color="#1a3460"/>
    </linearGradient>
    <linearGradient id="sidePanel" x1="0%" y1="0%" x2="100%" y2="100%">
      <stop offset="0%"  stop-color="#0c1d38"/>
      <stop offset="100%" stop-color="#1a3460"/>
    </linearGradient>
    <linearGradient id="holoStrip" x1="0%" y1="0%" x2="100%" y2="0%">
      <stop offset="0%"   stop-color="#c8d8e8"/>
      <stop offset="20%"  stop-color="#d4eaf0"/>
      <stop offset="40%"  stop-color="#c5e8d8"/>
      <stop offset="60%"  stop-color="#e8d8f0"/>
      <stop offset="80%"  stop-color="#f0e8c8"/>
      <stop offset="100%" stop-color="#d8eef8"/>
    </linearGradient>
  </defs>

  <!-- ═══════════════════════════════════════════════════
       BACK PANEL  (0,0) → (800,300)
  ═══════════════════════════════════════════════════ -->
  <rect x="0" y="0" width="800" height="300" fill="url(#paperBg)"/>
  <rect x="0" y="0" width="800" height="300" fill="none" stroke="#0d1f3c" stroke-width="3"/>

  <!-- Holographic top strip (glimpse matching front holo bar) -->
  <rect x="0" y="0" width="800" height="10" fill="url(#holoStrip)" opacity="0.7"/>

  <!-- Column dividers -->
  <line x1="200" y1="12" x2="200" y2="240" stroke="#dde5ef" stroke-width="1"/>
  <line x1="400" y1="12" x2="400" y2="240" stroke="#dde5ef" stroke-width="1"/>
  <line x1="600" y1="12" x2="600" y2="240" stroke="#dde5ef" stroke-width="1"/>

  <!-- ═══════════════════════════════════
       COLUMN 1  (x=0..200) — Product Identity
  ═══════════════════════════════════ -->
  <text x="15" y="36" font-family="Arial Black, Arial, sans-serif" font-size="17"
        font-weight="900" fill="#0d1f3c" letter-spacing="1">RETATRUTIDE</text>
  <text x="15" y="52" font-family="Arial, Helvetica, sans-serif" font-size="10"
        fill="#0d1f3c">Pre-filled Injection Pen</text>
  <line x1="15" y1="58" x2="185" y2="58" stroke="#dde5ef" stroke-width="1"/>
  <text x="15" y="72" font-family="Arial, Helvetica, sans-serif" font-size="9"
        fill="#5a6a7a">Multi-dose delivery system</text>
  <text x="15" y="85" font-family="Arial, Helvetica, sans-serif" font-size="9"
        fill="#5a6a7a">Total content: 12 mg / 0.6 mL</text>

  <line x1="15" y1="93" x2="185" y2="93" stroke="#dde5ef" stroke-width="1"/>

  <!-- Pen illustration (line art) -->
  <g transform="translate(15, 100)">
    <rect x="0"   y="8"  width="155" height="16" rx="8"  fill="none" stroke="#0d1f3c" stroke-width="1.5"/>
    <rect x="0"   y="10" width="20"  height="12" rx="6"  fill="#0d1f3c" opacity="0.15"/>
    <rect x="130" y="10" width="25"  height="12" rx="6"  fill="#0d1f3c" opacity="0.1"/>
    <line x1="110" y1="8" x2="110" y2="24" stroke="#0d1f3c" stroke-width="1" opacity="0.4"/>
    <rect x="112" y="11" width="16" height="6" rx="3" fill="none" stroke="#0d1f3c" stroke-width="1" opacity="0.6"/>
    <text x="78" y="20" font-family="Arial" font-size="6.5" fill="#0d1f3c" text-anchor="middle" opacity="0.7">RETATRUTIDE  12mg</text>
    <line x1="155" y1="14" x2="168" y2="16" stroke="#0d1f3c" stroke-width="1.2" stroke-linecap="round"/>
    <line x1="168" y1="16" x2="172" y2="16" stroke="#0d1f3c" stroke-width="0.8" stroke-linecap="round"/>
  </g>

  <line x1="15" y1="132" x2="185" y2="132" stroke="#dde5ef" stroke-width="1"/>

  <!-- DNA logo + brand -->
  <g transform="translate(15, 140)">
    <line x1="0"  y1="0" x2="0"  y2="48" stroke="#0d1f3c" stroke-width="2" stroke-linecap="round"/>
    <line x1="12" y1="0" x2="12" y2="48" stroke="#0d1f3c" stroke-width="2" stroke-linecap="round"/>
    <line x1="0" y1="7"  x2="12" y2="12" stroke="#0d1f3c" stroke-width="1.4"/>
    <line x1="0" y1="19" x2="12" y2="24" stroke="#0d1f3c" stroke-width="1.4"/>
    <line x1="0" y1="31" x2="12" y2="36" stroke="#0d1f3c" stroke-width="1.4"/>
    <line x1="0" y1="43" x2="12" y2="48" stroke="#0d1f3c" stroke-width="1.4"/>
    <circle cx="0"  cy="7"  r="2.5" fill="#0d1f3c"/>
    <circle cx="12" cy="12" r="2.5" fill="#0d1f3c"/>
    <circle cx="0"  cy="31" r="2.5" fill="#0d1f3c"/>
    <circle cx="12" cy="36" r="2.5" fill="#0d1f3c"/>
  </g>
  <text x="34" y="158" font-family="Arial, Helvetica, sans-serif" font-size="10"
        font-weight="bold" fill="#0d1f3c">Advanced Peptides UK</text>
  <text x="34" y="172" font-family="Arial, Helvetica, sans-serif" font-size="9"
        fill="#5a6a7a">London, UK</text>
  <text x="34" y="184" font-family="Arial, Helvetica, sans-serif" font-size="8.5"
        fill="#4a6fa5">www.advancedpeptidesuk.co.uk</text>

  <!-- ═══════════════════════════════════
       COLUMN 2  (x=200..400) — Contents
  ═══════════════════════════════════ -->
  <text x="215" y="36" font-family="Arial, Helvetica, sans-serif" font-size="11"
        font-weight="bold" fill="#0d1f3c" letter-spacing="1">CONTENTS:</text>
  <line x1="215" y1="41" x2="385" y2="41" stroke="#0d1f3c" stroke-width="1"/>

  <text x="215" y="58" font-family="Arial, Helvetica, sans-serif" font-size="10"
        fill="#2a3a4a">Retatrutide</text>
  <text x="215" y="73" font-family="Arial, Helvetica, sans-serif" font-size="10"
        fill="#2a3a4a">12 mg / 0.6 mL</text>
  <text x="215" y="88" font-family="Arial, Helvetica, sans-serif" font-size="10"
        fill="#2a3a4a">20 mg/mL</text>

  <line x1="215" y1="98" x2="385" y2="98" stroke="#dde5ef" stroke-width="1"/>

  <text x="215" y="114" font-family="Arial, Helvetica, sans-serif" font-size="9.5"
        fill="#2a3a4a">For subcutaneous use only</text>
  <text x="215" y="129" font-family="Arial, Helvetica, sans-serif" font-size="9.5"
        fill="#2a3a4a">Not for intravenous use</text>

  <line x1="215" y1="139" x2="385" y2="139" stroke="#dde5ef" stroke-width="1"/>

  <text x="215" y="156" font-family="Arial, Helvetica, sans-serif" font-size="10"
        font-weight="bold" fill="#0d1f3c">Rx Only</text>

  <!-- Manufacturer info -->
  <line x1="215" y1="168" x2="385" y2="168" stroke="#dde5ef" stroke-width="1"/>
  <text x="215" y="182" font-family="Arial, Helvetica, sans-serif" font-size="8.5"
        fill="#5a6a7a">Manufactured by:</text>
  <text x="215" y="194" font-family="Arial, Helvetica, sans-serif" font-size="8.5"
        fill="#2a3a4a" font-weight="bold">Advanced Peptides UK Ltd</text>
  <text x="215" y="206" font-family="Arial, Helvetica, sans-serif" font-size="8"
        fill="#5a6a7a">London, United Kingdom</text>

  <!-- ═══════════════════════════════════
       COLUMN 3  (x=400..600) — Instructions & Storage
  ═══════════════════════════════════ -->
  <!-- INSTRUCTIONS -->
  <text x="415" y="36" font-family="Arial, Helvetica, sans-serif" font-size="11"
        font-weight="bold" fill="#0d1f3c" letter-spacing="1">INSTRUCTIONS:</text>
  <line x1="415" y1="41" x2="585" y2="41" stroke="#0d1f3c" stroke-width="1"/>

  <text x="415" y="57" font-family="Arial, Helvetica, sans-serif" font-size="9.5"
        fill="#2a3a4a">Pre-filled multi-dose pen</text>
  <text x="415" y="71" font-family="Arial, Helvetica, sans-serif" font-size="9.5"
        fill="#2a3a4a">Use sterile technique</text>
  <text x="415" y="85" font-family="Arial, Helvetica, sans-serif" font-size="9.5"
        fill="#2a3a4a">Refer to instructions for use</text>

  <line x1="415" y1="97" x2="585" y2="97" stroke="#dde5ef" stroke-width="1"/>

  <!-- STORAGE -->
  <text x="415" y="113" font-family="Arial, Helvetica, sans-serif" font-size="11"
        font-weight="bold" fill="#0d1f3c" letter-spacing="1">STORAGE:</text>
  <line x1="415" y1="118" x2="585" y2="118" stroke="#0d1f3c" stroke-width="1"/>

  <!-- Snowflake icon -->
  <text x="416" y="136" font-family="Arial" font-size="13" fill="#4a9eff">❄</text>
  <text x="434" y="134" font-family="Arial, Helvetica, sans-serif" font-size="9.5"
        font-weight="bold" fill="#0d1f3c">Store at 2°C – 8°C</text>
  <text x="434" y="147" font-family="Arial, Helvetica, sans-serif" font-size="9"
        fill="#5a6a7a">Do not freeze</text>

  <!-- Shield icon -->
  <path d="M417,157 L423,155 L429,157 L429,165 L423,168 L417,165 Z"
        fill="none" stroke="#0d1f3c" stroke-width="1.5"/>
  <text x="434" y="163" font-family="Arial, Helvetica, sans-serif" font-size="9.5"
        fill="#0d1f3c">Protect from light</text>

  <!-- Warning icon -->
  <polygon points="423,178 416,192 430,192" fill="none" stroke="#e0a020" stroke-width="1.5"/>
  <text x="423" y="189" font-family="Arial" font-size="7" fill="#e0a020" text-anchor="middle">!</text>
  <text x="434" y="184" font-family="Arial, Helvetica, sans-serif" font-size="9.5"
        fill="#0d1f3c">Use within 30 days</text>
  <text x="434" y="197" font-family="Arial, Helvetica, sans-serif" font-size="9"
        fill="#5a6a7a">after first use</text>

  <!-- ═══════════════════════════════════
       COLUMN 4  (x=600..800) — Warnings & QR
  ═══════════════════════════════════ -->
  <text x="615" y="36" font-family="Arial, Helvetica, sans-serif" font-size="11"
        font-weight="bold" fill="#0d1f3c" letter-spacing="1">WARNINGS:</text>
  <line x1="615" y1="41" x2="790" y2="41" stroke="#0d1f3c" stroke-width="1"/>

  <text x="615" y="57" font-family="Arial, Helvetica, sans-serif" font-size="9.5"
        fill="#2a3a4a">Keep out of reach</text>
  <text x="615" y="70" font-family="Arial, Helvetica, sans-serif" font-size="9.5"
        fill="#2a3a4a">of children</text>
  <text x="615" y="86" font-family="Arial, Helvetica, sans-serif" font-size="9.5"
        fill="#2a3a4a">Do not use if damaged</text>
  <text x="615" y="99" font-family="Arial, Helvetica, sans-serif" font-size="9.5"
        fill="#2a3a4a">or tampered with</text>
  <text x="615" y="115" font-family="Arial, Helvetica, sans-serif" font-size="9.5"
        fill="#2a3a4a">Dispose of safely after</text>
  <text x="615" y="128" font-family="Arial, Helvetica, sans-serif" font-size="9.5"
        fill="#2a3a4a">use per local regulations</text>

  <line x1="615" y1="136" x2="790" y2="136" stroke="#dde5ef" stroke-width="1"/>

  <!-- QR Code -->
  <rect x="650" y="143" width="65" height="65" rx="4" fill="#ffffff" stroke="#0d1f3c" stroke-width="1.5"/>
  <!-- QR pattern -->
  <rect x="653" y="146" width="18" height="18" rx="1" fill="#0d1f3c"/>
  <rect x="656" y="149" width="12" height="12" rx="0.5" fill="#ffffff"/>
  <rect x="658" y="151" width="8"  height="8"  fill="#0d1f3c"/>
  <rect x="693" y="146" width="18" height="18" rx="1" fill="#0d1f3c"/>
  <rect x="696" y="149" width="12" height="12" rx="0.5" fill="#ffffff"/>
  <rect x="698" y="151" width="8"  height="8"  fill="#0d1f3c"/>
  <rect x="653" y="186" width="18" height="18" rx="1" fill="#0d1f3c"/>
  <rect x="656" y="189" width="12" height="12" rx="0.5" fill="#ffffff"/>
  <rect x="658" y="191" width="8"  height="8"  fill="#0d1f3c"/>
  <!-- QR data cells -->
  <rect x="675" y="146" width="5" height="5" fill="#0d1f3c"/>
  <rect x="682" y="146" width="5" height="5" fill="#0d1f3c"/>
  <rect x="675" y="154" width="5" height="5" fill="#0d1f3c"/>
  <rect x="675" y="162" width="5" height="5" fill="#0d1f3c"/>
  <rect x="682" y="158" width="5" height="5" fill="#0d1f3c"/>
  <rect x="675" y="170" width="5" height="5" fill="#0d1f3c"/>
  <rect x="682" y="166" width="5" height="5" fill="#0d1f3c"/>
  <rect x="675" y="178" width="5" height="5" fill="#0d1f3c"/>
  <rect x="682" y="174" width="5" height="5" fill="#0d1f3c"/>
  <rect x="653" y="167" width="5" height="5" fill="#0d1f3c"/>
  <rect x="660" y="173" width="5" height="5" fill="#0d1f3c"/>
  <rect x="653" y="178" width="5" height="5" fill="#0d1f3c"/>
  <rect x="693" y="167" width="5" height="5" fill="#0d1f3c"/>
  <rect x="700" y="173" width="5" height="5" fill="#0d1f3c"/>
  <rect x="693" y="178" width="5" height="5" fill="#0d1f3c"/>
  <rect x="675" y="186" width="5" height="5" fill="#0d1f3c"/>
  <rect x="682" y="192" width="5" height="5" fill="#0d1f3c"/>
  <rect x="700" y="186" width="5" height="5" fill="#0d1f3c"/>

  <text x="683" y="220" font-family="Arial, Helvetica, sans-serif" font-size="8"
        fill="#0d1f3c" text-anchor="middle" font-weight="bold" letter-spacing="1">AUTHENTICATE</text>
  <text x="683" y="230" font-family="Arial, Helvetica, sans-serif" font-size="8"
        fill="#0d1f3c" text-anchor="middle" font-weight="bold" letter-spacing="1">PRODUCT</text>
  <text x="683" y="240" font-family="Arial, Helvetica, sans-serif" font-size="7.5"
        fill="#4a6fa5" text-anchor="middle" letter-spacing="1">SCAN QR CODE</text>

  <!-- ═══════════════════════════════════
       BOTTOM NAVY BANNER  (y=244..300)
  ═══════════════════════════════════ -->
  <rect x="0" y="244" width="800" height="56" fill="url(#navyBanner)"/>
  <rect x="0" y="244" width="800" height="56" fill="none" stroke="#0d1f3c" stroke-width="1" opacity="0.5"/>

  <!-- Dividers -->
  <line x1="200" y1="248" x2="200" y2="296" stroke="#1e3a6a" stroke-width="1"/>
  <line x1="400" y1="248" x2="400" y2="296" stroke="#1e3a6a" stroke-width="1"/>
  <line x1="600" y1="248" x2="600" y2="296" stroke="#1e3a6a" stroke-width="1"/>

  <!-- Icon 1 — Research Use Only -->
  <text x="60"  y="267" font-family="Arial" font-size="14" fill="#4a9eff" text-anchor="middle">🔬</text>
  <text x="100" y="265" font-family="Arial, Helvetica, sans-serif" font-size="9"
        fill="#ffffff" font-weight="bold" letter-spacing="1">RESEARCH USE ONLY</text>
  <text x="100" y="278" font-family="Arial, Helvetica, sans-serif" font-size="8.5"
        fill="#7090b0">Not for human consumption</text>

  <!-- Icon 2 — High Purity -->
  <text x="260" y="267" font-family="Arial" font-size="14" fill="#4a9eff" text-anchor="middle">🏅</text>
  <text x="300" y="265" font-family="Arial, Helvetica, sans-serif" font-size="9"
        fill="#ffffff" font-weight="bold" letter-spacing="1">HIGH PURITY</text>
  <text x="300" y="278" font-family="Arial, Helvetica, sans-serif" font-size="8.5"
        fill="#7090b0">Research Grade</text>

  <!-- Icon 3 — Cold Stored -->
  <text x="460" y="267" font-family="Arial" font-size="14" fill="#4a9eff" text-anchor="middle">❄️</text>
  <text x="500" y="265" font-family="Arial, Helvetica, sans-serif" font-size="9"
        fill="#ffffff" font-weight="bold" letter-spacing="1">COLD STORED 2°C–8°C</text>
  <text x="500" y="278" font-family="Arial, Helvetica, sans-serif" font-size="8.5"
        fill="#7090b0">Refrigerated at all times</text>

  <!-- Icon 4 — Quality Assured -->
  <text x="660" y="267" font-family="Arial" font-size="14" fill="#4a9eff" text-anchor="middle">✅</text>
  <text x="700" y="265" font-family="Arial, Helvetica, sans-serif" font-size="9"
        fill="#ffffff" font-weight="bold" letter-spacing="1">QUALITY ASSURED</text>
  <text x="700" y="278" font-family="Arial, Helvetica, sans-serif" font-size="8.5"
        fill="#7090b0">Trusted Peptide Solutions</text>

  <!-- Disclaimer line -->
  <text x="400" y="294" font-family="Arial, Helvetica, sans-serif" font-size="7"
        fill="#2a4a6a" text-anchor="middle">
    * This statement has not been evaluated by the MHRA. For research purposes only. Keep out of reach of children.
  </text>

  <!-- ═══════════════════════════════════════════════════
       SIDE PANEL  (800,0) → (1020,300)
  ═══════════════════════════════════════════════════ -->
  <rect x="800" y="0" width="220" height="300" fill="url(#sidePanel)"/>
  <rect x="800" y="0" width="220" height="300" fill="none" stroke="#0d1f3c" stroke-width="3"/>
  <line x1="803" y1="0" x2="803" y2="300" stroke="#1e3a6a" stroke-width="1.5"/>

  <!-- Side panel top holo strip -->
  <rect x="800" y="0" width="220" height="10" fill="url(#holoStrip)" opacity="0.7"/>

  <text x="910" y="30" font-family="Arial, Helvetica, sans-serif" font-size="10"
        fill="#a8c4e0" text-anchor="middle" letter-spacing="2" font-weight="bold">BARCODE</text>
  <line x1="818" y1="36" x2="1002" y2="36" stroke="#2a4a7a" stroke-width="0.8"/>

  <!-- Barcode simulation -->
  <g transform="translate(825, 44)">
    <!-- Barcode bars -->
    <rect x="0"   y="0" width="2"   height="55" fill="#ffffff"/>
    <rect x="4"   y="0" width="1"   height="55" fill="#ffffff"/>
    <rect x="7"   y="0" width="3"   height="55" fill="#ffffff"/>
    <rect x="12"  y="0" width="1"   height="55" fill="#ffffff"/>
    <rect x="15"  y="0" width="2"   height="55" fill="#ffffff"/>
    <rect x="19"  y="0" width="3"   height="55" fill="#ffffff"/>
    <rect x="24"  y="0" width="1"   height="55" fill="#ffffff"/>
    <rect x="27"  y="0" width="2"   height="55" fill="#ffffff"/>
    <rect x="31"  y="0" width="3"   height="55" fill="#ffffff"/>
    <rect x="36"  y="0" width="1"   height="55" fill="#ffffff"/>
    <rect x="39"  y="0" width="2"   height="55" fill="#ffffff"/>
    <rect x="43"  y="0" width="3"   height="55" fill="#ffffff"/>
    <rect x="48"  y="0" width="1"   height="55" fill="#ffffff"/>
    <rect x="51"  y="0" width="2"   height="55" fill="#ffffff"/>
    <rect x="55"  y="0" width="3"   height="55" fill="#ffffff"/>
    <rect x="60"  y="0" width="1"   height="55" fill="#ffffff"/>
    <rect x="63"  y="0" width="3"   height="55" fill="#ffffff"/>
    <rect x="68"  y="0" width="1"   height="55" fill="#ffffff"/>
    <rect x="71"  y="0" width="2"   height="55" fill="#ffffff"/>
    <rect x="75"  y="0" width="3"   height="55" fill="#ffffff"/>
    <rect x="80"  y="0" width="1"   height="55" fill="#ffffff"/>
    <rect x="83"  y="0" width="2"   height="55" fill="#ffffff"/>
    <rect x="87"  y="0" width="3"   height="55" fill="#ffffff"/>
    <rect x="92"  y="0" width="1"   height="55" fill="#ffffff"/>
    <rect x="95"  y="0" width="2"   height="55" fill="#ffffff"/>
    <rect x="99"  y="0" width="3"   height="55" fill="#ffffff"/>
    <rect x="104" y="0" width="1"   height="55" fill="#ffffff"/>
    <rect x="107" y="0" width="3"   height="55" fill="#ffffff"/>
    <rect x="112" y="0" width="2"   height="55" fill="#ffffff"/>
    <rect x="116" y="0" width="1"   height="55" fill="#ffffff"/>
    <rect x="119" y="0" width="3"   height="55" fill="#ffffff"/>
    <rect x="124" y="0" width="2"   height="55" fill="#ffffff"/>
    <rect x="128" y="0" width="1"   height="55" fill="#ffffff"/>
    <rect x="131" y="0" width="3"   height="55" fill="#ffffff"/>
    <rect x="136" y="0" width="1"   height="55" fill="#ffffff"/>
    <rect x="139" y="0" width="2"   height="55" fill="#ffffff"/>
    <rect x="143" y="0" width="3"   height="55" fill="#ffffff"/>
    <rect x="148" y="0" width="1"   height="55" fill="#ffffff"/>
    <rect x="151" y="0" width="2"   height="55" fill="#ffffff"/>
    <text x="76" y="70" font-family="Arial, Helvetica, sans-serif" font-size="8"
          fill="#a8c4e0" text-anchor="middle">5 060XXX XXXXXX</text>
  </g>

  <line x1="818" y1="125" x2="1002" y2="125" stroke="#2a4a7a" stroke-width="0.8"/>

  <!-- Side panel info -->
  <text x="818" y="142" font-family="Arial, Helvetica, sans-serif" font-size="9"
        fill="#a8c4e0" font-weight="bold">PRODUCT CODE</text>
  <text x="818" y="156" font-family="Arial, Helvetica, sans-serif" font-size="9"
        fill="#ffffff">RTT-12MG-PEN-UK</text>

  <line x1="818" y1="164" x2="1002" y2="164" stroke="#2a4a7a" stroke-width="0.8"/>

  <text x="818" y="180" font-family="Arial, Helvetica, sans-serif" font-size="9"
        fill="#a8c4e0" font-weight="bold">NET CONTENT</text>
  <text x="818" y="194" font-family="Arial, Helvetica, sans-serif" font-size="9"
        fill="#ffffff">1 × Pre-filled Pen</text>
  <text x="818" y="208" font-family="Arial, Helvetica, sans-serif" font-size="9"
        fill="#ffffff">+ Needle Inserts (×10)</text>
  <text x="818" y="222" font-family="Arial, Helvetica, sans-serif" font-size="9"
        fill="#ffffff">+ Instructions for Use</text>

  <line x1="818" y1="230" x2="1002" y2="230" stroke="#2a4a7a" stroke-width="0.8"/>

  <!-- Storage reminder on side -->
  <text x="818" y="247" font-family="Arial, Helvetica, sans-serif" font-size="8.5"
        fill="#a8c4e0" font-weight="bold">STORAGE</text>
  <text x="818" y="260" font-family="Arial, Helvetica, sans-serif" font-size="8.5"
        fill="#ffffff">2°C – 8°C  |  Do not freeze</text>
  <text x="818" y="274" font-family="Arial, Helvetica, sans-serif" font-size="8"
        fill="#7090b0">Protect from light</text>

  <line x1="818" y1="282" x2="1002" y2="282" stroke="#2a4a7a" stroke-width="0.8"/>

  <text x="910" y="295" font-family="Arial, Helvetica, sans-serif" font-size="7.5"
        fill="#4a6fa5" text-anchor="middle">ADVANCEDPEPTIDESUK.CO.UK</text>

</svg>
